<svg class="diagram-root" style="background: #f5f6f6" xmlns="http://www.w3.org/2000/svg" xmlns:xlink="http://www.w3.org/1999/xlink"><style>.diagram-root { font-family: "Helvetica Neue", sans-serif; font-size: 12px; } .t { overflow: visible; } .t-bg { y: 40; fill: #fff;   } .th { fill: #005aa0;   } .tht { fill: #fff; font-size: 14px;  } .tf { fill: #323c46; overflow: visible; } .tf.pk { fill: #005aa0; font-weight: bold; } .tf.fk { font-weight: bold; } .ty { fill: #adb1b5; font-weight: normal; text-anchor: end; } .r { fill: transparent; stroke: #c3c3c3; stroke-width: 1; } .l { stroke: 1; } .i { fill: #c2c7ce; stroke: #c2c7ce; } .i.ix { fill: #afb3b6; stroke: #000; } .fa { fill: transparent; overflow: visible; } .fa .bg.hover { fill: #f7f7f7; } .c { cy: 12; r: 4; stroke: #d2d2dc; fill: #d2d2dc; } .hr { fill: transparent; stroke: #323c46; stroke-opacity: 0.035; stroke-width: 13; } .dc { stroke: #fa5a3c; fill: #fa5a3c; } .x { stroke: white; stroke-width: 1; } .hl .th { fill: #1b9bff; } .hl .tht {  } .fhl .bg { fill: #e7f4ff; } .fhls .bg {  } .r.hl { stroke: #1b9bff; } .dim { opacity: 0.25; }</style><g class="drawing-wrapper" transform="translate(2, 18) scale(1,1)"><g class="rs"><path d="M 201.4 412 m -1, 0 a 1,1 0 1,0 2,0 a 1,1 0 1,0 -2,0 M 201.4 412 m -0.5, 0 a 0.5,0.5 0 1,0 1,0 a 0.5,0.5 0 1,0 -1,0  M201.4 412 L201.4 412 213.4 412 M 201.4 418 m -1, 0 a 1,1 0 1,0 2,0 a 1,1 0 1,0 -2,0 M 201.4 418 m -0.5, 0 a 0.5,0.5 0 1,0 1,0 a 0.5,0.5 0 1,0 -1,0  M201.4 418 L201.4 418 208.4 412 201.4 406 M 201.4 406 m -1, 0 a 1,1 0 1,0 2,0 a 1,1 0 1,0 -2,0 M 201.4 406 m -0.5, 0 a 0.5,0.5 0 1,0 1,0 a 0.5,0.5 0 1,0 -1,0  M213.4 412 Q 254.8 412, 296.2 336.5 T 379 261 M 391 261 m -1, 0 a 1,1 0 1,0 2,0 a 1,1 0 1,0 -2,0 M 391 261 m -0.5, 0 a 0.5,0.5 0 1,0 1,0 a 0.5,0.5 0 1,0 -1,0  M391 261 L391 261 379 261 M385 267 L385 267 385 255" id="h1054157934" class="r"></path><path d="M 390 87 m -1, 0 a 1,1 0 1,0 2,0 a 1,1 0 1,0 -2,0 M 390 87 m -0.5, 0 a 0.5,0.5 0 1,0 1,0 a 0.5,0.5 0 1,0 -1,0  M390 87 L390 87 378 87 M 390 93 m -1, 0 a 1,1 0 1,0 2,0 a 1,1 0 1,0 -2,0 M 390 93 m -0.5, 0 a 0.5,0.5 0 1,0 1,0 a 0.5,0.5 0 1,0 -1,0  M390 93 L390 93 383 87 390 81 M 390 81 m -1, 0 a 1,1 0 1,0 2,0 a 1,1 0 1,0 -2,0 M 390 81 m -0.5, 0 a 0.5,0.5 0 1,0 1,0 a 0.5,0.5 0 1,0 -1,0  M378 87 Q 336.85 87, 295.7 237 T 213.4 387 M 201.4 387 m -1, 0 a 1,1 0 1,0 2,0 a 1,1 0 1,0 -2,0 M 201.4 387 m -0.5, 0 a 0.5,0.5 0 1,0 1,0 a 0.5,0.5 0 1,0 -1,0  M201.4 387 L201.4 387 213.4 387 M207.4 393 L207.4 393 207.4 381" id="h3714551679" class="r"></path><path d="M 396 395 m -1, 0 a 1,1 0 1,0 2,0 a 1,1 0 1,0 -2,0 M 396 395 m -0.5, 0 a 0.5,0.5 0 1,0 1,0 a 0.5,0.5 0 1,0 -1,0  M396 395 L396 395 384 395 M 396 401 m -1, 0 a 1,1 0 1,0 2,0 a 1,1 0 1,0 -2,0 M 396 401 m -0.5, 0 a 0.5,0.5 0 1,0 1,0 a 0.5,0.5 0 1,0 -1,0  M396 401 L396 401 389 395 396 389 M 396 389 m -1, 0 a 1,1 0 1,0 2,0 a 1,1 0 1,0 -2,0 M 396 389 m -0.5, 0 a 0.5,0.5 0 1,0 1,0 a 0.5,0.5 0 1,0 -1,0  M384 395 Q 341.35 395, 298.7 253.5 T 213.4 112 M 201.4 112 m -1, 0 a 1,1 0 1,0 2,0 a 1,1 0 1,0 -2,0 M 201.4 112 m -0.5, 0 a 0.5,0.5 0 1,0 1,0 a 0.5,0.5 0 1,0 -1,0  M201.4 112 L201.4 112 213.4 112 M207.4 118 L207.4 118 207.4 106" id="h2047093605" class="r"></path></g><g class="hrs"></g><g class="ts"><svg width="171.4" height="400" x="30" y="30" id="h3257514455" class="t"><rect height="40" width="171.4" class="th"></rect><text x="13" y="25" class="tht">campaign</text><rect height="360" width="171.4" class="t-bg" y="40"></rect><text x="13" y="61" class="tf pk">cf_id<tspan x="158.4" class="ty">int</tspan></text><path d="M7,14A2,2 0 0,1 5,12A2,2 0 0,1 7,10A2,2 0 0,1 9,12A2,2 0 0,1 7,14M12.65,10C11.83,7.67 9.61,6 7, 6A6, 6 0 0, 0 1, 12A6, 6 0 0, 0 7, 18C9.61, 18 11.83, 16.33 12.65, 14H17V18H21V14H23V10H12.65Z" class="i pk" transform="translate(125.726171875, 48) scale(0.65)"></path><text x="13" y="86" class="tf fk">contact_id<tspan x="158.4" class="ty">int</tspan></text><text x="13" y="111" class="tf">company_name<tspan x="158.4" class="ty">varchar</tspan></text><text x="13" y="136" class="tf">description<tspan x="158.4" class="ty">varchar</tspan></text><text x="13" y="161" class="tf">goal<tspan x="158.4" class="ty">double</tspan></text><text x="13" y="186" class="tf">pledged<tspan x="158.4" class="ty">double</tspan></text><text x="13" y="211" class="tf">outcome<tspan x="158.4" class="ty">varchar</tspan></text><text x="13" y="236" class="tf">backers_count<tspan x="158.4" class="ty">int</tspan></text><text x="13" y="261" class="tf">country<tspan x="158.4" class="ty">varchar</tspan></text><text x="13" y="286" class="tf">currency<tspan x="158.4" class="ty">varchar</tspan></text><text x="13" y="311" class="tf">launched_date<tspan x="158.4" class="ty">date</tspan></text><text x="13" y="336" class="tf">end_date<tspan x="158.4" class="ty">date</tspan></text><text x="13" y="361" class="tf fk">category_id<tspan x="158.4" class="ty">varchar</tspan></text><text x="13" y="386" class="tf fk">subcategory_id<tspan x="158.4" class="ty">varchar</tspan></text></svg><svg width="168.05" height="100" x="390" y="30" id="h2794354149" class="t"><rect height="40" width="168.05" class="th"></rect><text x="13" y="25" class="tht">category</text><rect height="60" width="168.05" class="t-bg" y="40"></rect><text x="13" y="61" class="tf pk">category_id<tspan x="155.05" class="ty">varchar</tspan></text><path d="M7,14A2,2 0 0,1 5,12A2,2 0 0,1 7,10A2,2 0 0,1 9,12A2,2 0 0,1 7,14M12.65,10C11.83,7.67 9.61,6 7, 6A6, 6 0 0, 0 1, 12A6, 6 0 0, 0 7, 18C9.61, 18 11.83, 16.33 12.65, 14H17V18H21V14H23V10H12.65Z" class="i pk" transform="translate(95.03632812500001, 48) scale(0.65)"></path><text x="13" y="86" class="tf">category<tspan x="155.05" class="ty">varchar</tspan></text></svg><svg width="187.4" height="100" x="391" y="204" id="h1568904301" class="t"><rect height="40" width="187.4" class="th"></rect><text x="13" y="25" class="tht">subcategory</text><rect height="60" width="187.4" class="t-bg" y="40"></rect><text x="13" y="61" class="tf pk">subcategory_id<tspan x="174.4" class="ty">varchar</tspan></text><path d="M7,14A2,2 0 0,1 5,12A2,2 0 0,1 7,10A2,2 0 0,1 9,12A2,2 0 0,1 7,14M12.65,10C11.83,7.67 9.61,6 7, 6A6, 6 0 0, 0 1, 12A6, 6 0 0, 0 7, 18C9.61, 18 11.83, 16.33 12.65, 14H17V18H21V14H23V10H12.65Z" class="i pk" transform="translate(114.386328125, 48) scale(0.65)"></path><text x="13" y="86" class="tf">subcategory<tspan x="174.4" class="ty">varchar</tspan></text></svg><svg width="142.04" height="150" x="396" y="338" id="h4144639668" class="t"><rect height="40" width="142.04" class="th"></rect><text x="13" y="25" class="tht">contacts</text><rect height="110" width="142.04" class="t-bg" y="40"></rect><text x="13" y="61" class="tf pk">contact_id<tspan x="129.04" class="ty">int</tspan></text><path d="M7,14A2,2 0 0,1 5,12A2,2 0 0,1 7,10A2,2 0 0,1 9,12A2,2 0 0,1 7,14M12.65,10C11.83,7.67 9.61,6 7, 6A6, 6 0 0, 0 1, 12A6, 6 0 0, 0 7, 18C9.61, 18 11.83, 16.33 12.65, 14H17V18H21V14H23V10H12.65Z" class="i pk" transform="translate(96.36617187499999, 48) scale(0.65)"></path><text x="13" y="86" class="tf">first_name<tspan x="129.04" class="ty">varchar</tspan></text><text x="13" y="111" class="tf">last_name<tspan x="129.04" class="ty">varchar</tspan></text><text x="13" y="136" class="tf">email<tspan x="129.04" class="ty">varchar</tspan></text></svg></g></g><text class="qdbd-link" x="10" y="20">www.quickdatabasediagrams.com</text></svg>